<?xml version="1.0" standalone="no"?>
<!DOCTYPE svg PUBLIC "-//W3C//DTD SVG 20010904//EN"
 "http://www.w3.org/TR/2001/REC-SVG-20010904/DTD/svg10.dtd">
<svg version="1.0" xmlns="http://www.w3.org/2000/svg"
 width="2213.000000pt" height="2213.000000pt" viewBox="0 0 2213.000000 2213.000000"
 preserveAspectRatio="xMidYMid meet">
<metadata>
Created by potrace 1.11, written by Peter Selinger 2001-2013
</metadata>
<g transform="translate(0.000000,2213.000000) scale(0.100000,-0.100000)"
fill="#000000" stroke="none">
<path d="M10759 21535 c-3 -2 -79 -6 -169 -9 -91 -3 -199 -8 -240 -11 -143
-10 -265 -20 -350 -29 -25 -3 -72 -8 -105 -11 -59 -6 -101 -11 -180 -21 -22
-2 -58 -7 -80 -10 -22 -2 -51 -7 -65 -9 -14 -2 -43 -7 -65 -10 -23 -3 -52 -7
-65 -10 -14 -3 -43 -7 -65 -10 -22 -3 -51 -7 -65 -10 -14 -3 -39 -7 -55 -9
-17 -2 -44 -6 -60 -10 -41 -9 -74 -15 -110 -21 -55 -10 -197 -38 -247 -50 -13
-3 -45 -10 -72 -15 -27 -6 -68 -15 -90 -22 -23 -6 -48 -12 -56 -13 -8 -1 -46
-10 -84 -19 -38 -10 -79 -20 -90 -23 -38 -8 -51 -11 -51 -13 0 -2 -18 -6 -55
-14 -14 -3 -95 -26 -180 -51 -85 -25 -162 -47 -170 -49 -76 -20 -523 -170
-542 -182 -7 -5 -19 -9 -27 -11 -27 -4 -436 -167 -439 -175 -2 -5 -10 -8 -18
-8 -20 0 -164 -64 -419 -186 -88 -42 -175 -83 -194 -91 -18 -8 -52 -26 -74
-40 -22 -14 -45 -26 -51 -27 -6 -1 -28 -12 -47 -24 -20 -12 -39 -22 -41 -22
-3 0 -59 -29 -123 -65 -65 -36 -122 -65 -127 -65 -4 0 -8 -4 -8 -8 0 -4 -12
-13 -27 -20 -30 -13 -60 -30 -141 -79 -29 -18 -57 -33 -62 -33 -6 0 -10 -4
-10 -10 0 -5 -4 -10 -9 -10 -10 0 -153 -87 -261 -159 -30 -20 -59 -38 -65 -41
-23 -11 -100 -66 -103 -72 -2 -5 -10 -8 -18 -8 -8 0 -14 -4 -14 -10 0 -5 -5
-10 -10 -10 -6 0 -16 -5 -23 -11 -7 -5 -71 -51 -142 -102 -72 -51 -151 -108
-177 -127 -25 -19 -59 -44 -74 -55 -15 -11 -36 -28 -46 -37 -10 -10 -21 -18
-24 -18 -5 0 -302 -236 -314 -249 -3 -3 -32 -28 -65 -56 -67 -55 -105 -91 -90
-82 6 3 27 8 47 11 21 3 59 11 85 17 60 13 82 18 113 24 14 2 70 14 125 25 55
11 116 23 135 26 19 3 53 9 75 14 22 5 56 12 75 15 19 3 42 8 50 10 8 2 33 7
55 10 23 3 52 8 65 11 39 8 242 45 275 50 35 6 59 10 100 17 17 3 50 9 75 12
25 4 54 9 65 11 11 3 36 7 55 10 46 7 71 11 155 24 39 6 81 13 95 15 66 11 88
14 130 20 25 3 53 8 63 11 11 3 40 8 65 10 26 2 88 10 137 18 101 16 178 27
215 31 29 3 114 14 150 20 14 2 52 7 85 10 33 4 67 8 75 9 8 2 44 6 80 10 36
4 76 9 90 11 22 4 91 12 245 30 22 3 63 7 90 10 69 6 155 16 185 20 14 2 54 6
90 10 36 3 83 8 105 10 22 2 72 7 110 10 39 3 86 8 105 10 19 2 69 7 110 10
41 3 98 8 125 10 131 12 185 16 240 20 33 2 89 6 125 10 36 3 101 8 145 10 44
2 107 7 140 10 33 2 107 7 165 10 58 3 134 7 170 10 36 2 121 7 188 10 68 3
128 7 132 10 5 3 11 1 15 -5 4 -6 11 -7 17 -4 6 4 52 8 102 10 50 2 141 6 201
9 584 25 1879 25 2475 -1 63 -3 162 -6 220 -8 58 -3 105 -5 105 -6 0 0 47 -3
105 -5 108 -4 242 -11 390 -21 47 -3 117 -7 155 -9 77 -5 199 -13 285 -19 30
-3 96 -7 145 -11 50 -3 115 -8 145 -11 30 -4 71 -7 90 -9 124 -9 218 -17 240
-20 14 -2 59 -7 100 -10 41 -3 91 -8 110 -10 19 -3 62 -7 95 -10 64 -4 135
-12 200 -20 22 -3 62 -8 88 -10 26 -3 62 -7 80 -9 18 -3 59 -7 92 -11 33 -4
76 -8 95 -11 102 -12 208 -25 235 -28 17 -3 50 -7 75 -10 25 -3 61 -7 80 -10
19 -3 58 -8 85 -11 28 -3 64 -8 80 -10 17 -3 47 -7 68 -10 20 -3 54 -8 75 -11
20 -4 46 -8 57 -9 36 -3 140 -17 160 -22 11 -2 38 -6 60 -9 22 -2 67 -9 100
-14 33 -6 71 -12 85 -14 14 -2 41 -7 60 -10 19 -3 51 -8 70 -11 19 -2 46 -7
60 -9 14 -3 41 -7 60 -10 19 -3 46 -8 60 -11 14 -3 45 -8 70 -11 25 -3 53 -8
63 -10 10 -3 32 -7 49 -10 18 -2 68 -10 113 -18 44 -8 94 -17 110 -20 185 -31
230 -41 233 -48 2 -4 7 -6 12 -3 4 3 55 -4 112 -16 56 -11 117 -23 133 -25 30
-5 125 -25 327 -68 81 -17 105 -19 101 -9 -3 7 -8 13 -12 13 -4 0 -16 8 -27
18 -43 40 -165 143 -265 222 -110 88 -113 91 -244 189 -44 34 -87 68 -96 76
-9 8 -19 15 -22 15 -4 0 -15 7 -24 15 -10 8 -49 37 -88 64 -38 28 -74 54 -80
58 -48 40 -551 363 -565 363 -6 0 -10 4 -10 9 0 5 -9 13 -21 16 -11 4 -55 28
-97 54 -124 77 -544 304 -586 317 -11 4 -23 10 -26 14 -3 4 -32 19 -65 35 -33
15 -91 43 -130 61 -38 19 -76 34 -82 34 -7 0 -13 5 -13 10 0 6 -6 10 -13 10
-8 0 -41 14 -75 30 -34 17 -65 30 -68 30 -3 0 -29 11 -57 24 -29 13 -77 34
-107 46 -30 12 -69 29 -87 36 -17 8 -34 14 -37 14 -3 0 -25 8 -49 19 -54 24
-148 59 -167 63 -8 2 -17 6 -20 9 -6 6 -201 76 -335 120 -49 16 -97 32 -105
36 -8 3 -24 8 -35 10 -11 1 -29 7 -40 13 -20 9 -54 20 -215 66 -47 13 -103 29
-125 36 -80 23 -215 59 -240 62 -11 2 -27 6 -35 10 -8 3 -35 10 -60 15 -25 6
-85 19 -135 31 -49 12 -101 24 -114 26 -12 3 -51 11 -85 19 -33 8 -72 16 -86
18 -14 3 -54 11 -90 17 -36 7 -74 14 -85 16 -50 8 -92 16 -115 20 -14 2 -56 9
-94 14 -37 6 -72 13 -76 15 -5 3 -33 7 -62 9 -29 2 -64 6 -78 10 -14 3 -43 8
-65 10 -49 5 -127 14 -180 21 -22 3 -62 7 -90 10 -27 3 -68 7 -90 10 -74 8
-201 18 -393 30 -41 3 -77 7 -82 10 -5 3 -11 1 -15 -5 -4 -6 -11 -7 -17 -4 -6
4 -61 9 -122 11 -61 2 -124 5 -141 7 -16 1 -38 -1 -47 -6 -9 -4 -19 -4 -22 0
-5 9 -343 8 -353 -1 -3 -4 -11 -2 -18 3 -7 5 -14 8 -16 5z"/>
<path d="M10327 17804 c-1 -1 -114 -5 -252 -9 -137 -3 -293 -8 -345 -10 -52
-2 -158 -7 -235 -10 -181 -7 -291 -13 -390 -20 -44 -3 -123 -8 -175 -10 -52
-3 -117 -7 -145 -9 -27 -3 -88 -8 -135 -11 -47 -4 -105 -8 -130 -10 -25 -3
-83 -7 -130 -10 -47 -4 -101 -8 -120 -10 -19 -2 -71 -6 -115 -10 -45 -3 -94
-7 -110 -9 -17 -2 -68 -7 -115 -11 -47 -3 -96 -8 -110 -10 -14 -3 -50 -7 -80
-10 -30 -3 -76 -7 -102 -10 -27 -3 -72 -7 -100 -10 -49 -5 -131 -15 -253 -30
-27 -4 -70 -8 -95 -11 -42 -4 -67 -7 -150 -19 -19 -3 -55 -7 -80 -10 -25 -3
-72 -10 -105 -15 -33 -5 -82 -11 -110 -14 -27 -3 -63 -7 -80 -10 -16 -3 -50
-7 -75 -11 -25 -3 -56 -8 -70 -10 -14 -2 -45 -7 -70 -10 -25 -3 -56 -8 -70
-10 -14 -3 -41 -7 -60 -10 -19 -3 -46 -7 -60 -10 -14 -2 -45 -7 -70 -10 -25
-4 -112 -18 -195 -32 -82 -13 -159 -26 -170 -28 -63 -9 -281 -48 -342 -60 -39
-8 -89 -17 -110 -21 -53 -8 -278 -51 -393 -75 -114 -24 -198 -41 -260 -53 -14
-2 -47 -10 -75 -16 -64 -15 -83 -19 -120 -25 -16 -3 -38 -8 -47 -11 -9 -3 -25
-7 -35 -9 -10 -2 -58 -12 -108 -24 -49 -11 -101 -22 -115 -25 -23 -5 -274 -65
-360 -86 -19 -5 -71 -18 -115 -28 -183 -45 -719 -189 -825 -222 -19 -6 -43
-13 -53 -15 -21 -5 -181 -52 -217 -64 -14 -5 -52 -17 -85 -26 -89 -26 -244
-74 -292 -91 -32 -12 -50 -28 -74 -64 -17 -27 -31 -51 -30 -54 1 -4 -7 -15
-16 -26 -10 -10 -27 -36 -38 -57 -11 -21 -24 -41 -30 -45 -7 -5 -7 -8 0 -8 6
0 6 -3 -1 -8 -12 -8 -134 -220 -134 -232 0 -5 -3 -10 -7 -12 -5 -1 -16 -19
-27 -38 -43 -81 -285 -556 -287 -565 -1 -5 -22 -52 -46 -103 -23 -51 -43 -95
-43 -97 0 -2 -11 -28 -24 -57 -23 -49 -57 -126 -61 -138 -1 -3 -7 -18 -14 -35
-7 -16 -14 -35 -15 -41 -1 -7 -7 -18 -13 -25 -6 -8 -12 -18 -12 -24 0 -5 -7
-26 -15 -45 -8 -19 -33 -84 -56 -145 -23 -60 -48 -125 -56 -143 -8 -18 -14
-37 -14 -42 0 -5 -5 -21 -12 -37 -6 -15 -12 -30 -13 -33 -4 -18 -38 -119 -45
-135 -21 -48 -69 -208 -65 -215 3 -5 1 -10 -3 -12 -12 -5 -164 -541 -187 -660
-2 -11 -6 -27 -9 -36 -3 -9 -7 -28 -10 -42 -3 -14 -7 -34 -10 -45 -5 -20 -31
-141 -40 -185 -3 -14 -8 -36 -11 -50 -3 -14 -7 -38 -9 -55 -2 -16 -6 -37 -9
-45 -5 -16 -26 -122 -34 -175 -2 -16 -9 -56 -14 -87 -14 -79 -17 -96 -24 -148
-3 -25 -8 -57 -10 -73 -11 -77 -26 -187 -30 -227 -3 -25 -7 -61 -10 -80 -2
-19 -7 -64 -10 -100 -3 -36 -7 -81 -10 -100 -3 -19 -7 -71 -11 -115 -3 -44 -7
-93 -9 -110 -26 -201 -26 -1041 0 -1325 2 -19 6 -83 10 -142 3 -58 8 -115 10
-126 2 -12 7 -65 10 -119 4 -54 8 -111 10 -128 2 -16 6 -50 9 -75 3 -25 8 -72
11 -105 3 -33 10 -89 15 -125 5 -36 12 -87 15 -115 4 -27 8 -61 11 -75 2 -14
9 -54 14 -90 15 -96 27 -150 33 -157 4 -3 37 2 74 12 37 9 76 19 85 21 28 6
48 11 138 33 100 25 105 26 190 45 36 8 175 39 310 70 135 30 256 57 270 60
28 6 39 8 131 30 37 8 78 17 90 20 13 2 76 16 139 30 110 26 128 29 195 41 17
3 37 8 45 10 8 2 29 7 45 10 17 2 41 7 55 10 14 3 48 10 75 15 28 6 61 12 75
15 27 6 463 85 495 90 69 12 457 75 490 80 22 3 54 8 70 11 17 3 44 7 60 9 27
3 137 19 205 30 23 3 82 12 140 20 14 2 45 6 70 10 25 3 77 10 115 15 102 14
145 20 190 25 22 2 56 7 75 10 58 8 113 15 155 19 40 5 266 32 340 41 22 3
103 12 180 20 77 9 156 17 175 20 19 2 69 7 110 11 41 3 82 8 90 9 8 2 51 6
95 10 44 4 91 8 105 10 14 1 63 6 110 9 47 4 96 9 110 11 14 2 63 7 110 10 47
3 101 8 120 10 19 2 69 6 110 10 41 3 100 8 130 10 30 3 91 7 135 10 44 3 105
7 135 9 30 3 96 7 145 10 50 4 117 8 150 11 33 2 112 7 175 10 63 4 144 8 180
11 60 3 129 7 400 19 58 2 178 7 268 11 l162 6 -2 -4576 c0 -2517 2 -4579 6
-4583 3 -4 12 -8 19 -9 7 -2 50 -13 97 -24 47 -12 93 -24 103 -26 23 -5 40 -9
118 -28 79 -18 67 -16 289 -60 179 -36 226 -45 270 -51 14 -2 39 -6 55 -9 27
-5 127 -20 195 -31 14 -2 50 -7 80 -10 30 -4 62 -9 70 -10 8 -2 42 -6 75 -9
33 -4 74 -9 90 -11 136 -19 487 -47 755 -60 92 -5 694 -5 770 -1 133 8 269 17
313 22 26 2 68 6 95 9 61 6 157 14 224 20 29 3 69 7 88 9 19 3 64 8 100 12 36
3 69 8 73 11 4 2 34 6 65 8 32 2 71 6 87 9 44 7 116 18 145 21 28 4 142 22
180 29 14 2 43 7 65 10 22 3 65 10 95 16 30 6 71 13 90 16 74 11 315 58 425
84 22 5 90 21 151 35 l111 26 -1 4577 -1 4577 135 -2 c121 -1 233 -5 485 -18
44 -2 134 -7 200 -10 66 -3 147 -7 180 -9 33 -2 110 -7 170 -11 61 -3 133 -8
160 -10 28 -2 86 -7 130 -10 315 -22 368 -26 410 -30 22 -3 76 -7 120 -10 44
-3 96 -8 115 -10 19 -3 71 -7 115 -10 44 -3 96 -8 115 -10 19 -3 64 -7 100
-10 36 -3 85 -7 110 -10 51 -5 108 -11 195 -20 33 -3 71 -8 85 -10 14 -3 58
-7 98 -10 40 -4 82 -8 93 -10 11 -2 48 -7 82 -10 35 -3 71 -7 82 -9 11 -2 52
-7 90 -11 39 -4 77 -8 85 -10 9 -2 46 -6 82 -9 37 -4 75 -8 85 -10 10 -2 45
-7 78 -11 33 -4 71 -9 85 -11 14 -2 48 -6 75 -9 28 -3 61 -7 75 -10 14 -2 45
-7 70 -10 25 -3 56 -8 70 -10 14 -2 45 -7 70 -10 25 -4 56 -8 70 -10 14 -2 75
-11 135 -19 105 -15 511 -78 585 -91 19 -3 112 -19 205 -35 264 -45 562 -99
645 -116 41 -9 86 -18 100 -20 14 -3 57 -11 95 -19 39 -8 86 -17 105 -20 19
-3 42 -8 50 -10 8 -2 29 -7 45 -9 17 -3 123 -26 237 -50 113 -25 217 -47 230
-50 12 -2 46 -9 73 -16 28 -6 68 -15 90 -20 62 -14 229 -53 275 -65 3 0 23 -5
45 -10 50 -11 15 -2 268 -64 120 -29 220 -52 222 -50 2 2 13 63 25 134 31 191
37 234 45 304 3 23 7 55 9 70 3 14 8 51 11 81 3 30 8 66 10 80 3 23 10 97 20
205 2 22 6 72 9 110 24 261 31 457 31 855 0 328 -8 615 -20 745 -3 22 -7 73
-10 112 -3 40 -7 94 -10 120 -3 27 -7 73 -10 103 -17 158 -23 217 -29 245 -2
11 -7 49 -11 85 -17 165 -105 659 -145 825 -6 22 -12 51 -15 65 -13 67 -38
169 -91 375 -3 11 -7 29 -10 40 -2 11 -18 65 -34 120 -17 55 -32 108 -35 118
-23 94 -175 557 -215 652 -4 11 -23 58 -40 105 -18 47 -39 99 -45 115 -7 17
-16 40 -20 53 -3 12 -11 22 -16 22 -6 0 -8 4 -5 9 5 8 -1 26 -54 146 -10 22
-32 74 -50 115 -114 264 -248 531 -475 945 -12 22 -41 71 -64 109 -22 37 -41
70 -41 73 0 3 -8 17 -19 31 -10 15 -29 45 -42 67 -55 92 -65 105 -89 114 -42
16 -271 86 -547 166 -49 14 -117 35 -153 46 -36 10 -74 21 -85 24 -11 2 -54
14 -95 25 -99 28 -181 51 -200 55 -8 2 -85 22 -170 45 -128 33 -402 102 -460
115 -8 2 -62 15 -120 29 -58 13 -116 27 -130 30 -22 4 -45 9 -130 30 -8 2 -49
11 -90 20 -41 9 -106 23 -145 31 -38 8 -83 18 -99 21 -16 2 -32 6 -35 8 -3 2
-22 7 -41 10 -19 3 -67 12 -105 20 -39 8 -83 17 -98 20 -15 2 -35 7 -45 10 -9
3 -33 7 -52 10 -39 6 -69 12 -115 22 -16 4 -37 8 -45 9 -8 1 -28 5 -45 8 -16
4 -46 9 -65 12 -19 3 -93 17 -165 30 -71 14 -143 27 -160 29 -16 2 -68 11
-115 20 -47 9 -103 18 -125 21 -22 3 -51 8 -65 11 -45 8 -64 11 -115 18 -72
11 -115 17 -139 22 -11 2 -68 11 -126 19 -58 8 -121 18 -140 21 -19 3 -53 7
-75 10 -22 3 -47 7 -55 9 -8 2 -42 7 -75 10 -33 3 -67 8 -75 10 -8 2 -40 7
-70 10 -30 3 -66 8 -80 10 -14 3 -45 7 -70 10 -25 3 -63 8 -85 11 -102 13
-128 16 -250 29 -48 6 -77 9 -162 20 -45 5 -141 15 -202 21 -62 5 -140 13
-181 18 -19 3 -71 7 -115 11 -44 3 -91 8 -105 10 -14 2 -61 7 -105 10 -44 3
-98 7 -120 10 -22 2 -76 7 -120 10 -111 7 -269 19 -400 29 -33 3 -109 7 -170
11 -60 3 -139 8 -175 10 -36 3 -117 7 -180 10 -63 3 -158 7 -210 10 -52 2
-167 7 -255 10 -88 3 -223 8 -300 11 -132 5 -1533 12 -1538 8z"/>
<path d="M6288 8065 c-2 -1 -41 -5 -88 -9 -47 -4 -101 -8 -120 -11 -19 -2 -66
-6 -105 -9 -38 -4 -86 -9 -105 -11 -19 -3 -65 -7 -101 -10 -37 -3 -82 -7 -100
-9 -19 -3 -61 -8 -94 -11 -124 -13 -151 -16 -180 -20 -16 -2 -61 -7 -100 -11
-38 -3 -78 -8 -90 -10 -11 -2 -42 -6 -70 -9 -27 -3 -67 -8 -87 -10 -21 -3 -55
-7 -75 -10 -86 -10 -132 -16 -198 -25 -38 -5 -90 -12 -115 -15 -25 -3 -56 -8
-70 -10 -14 -2 -47 -7 -75 -10 -51 -6 -89 -12 -135 -20 -14 -2 -49 -7 -79 -10
-30 -4 -63 -9 -75 -11 -12 -2 -68 -11 -126 -19 -58 -9 -116 -18 -130 -20 -14
-2 -70 -11 -125 -20 -115 -18 -140 -22 -215 -35 -30 -5 -71 -12 -90 -15 -19
-3 -48 -8 -65 -11 -276 -46 -1061 -198 -1285 -249 -58 -13 -116 -26 -130 -28
-45 -9 -292 -65 -445 -102 -82 -20 -157 -38 -165 -40 -8 -2 -80 -20 -160 -40
-80 -21 -155 -40 -168 -42 -12 -3 -22 -11 -22 -18 0 -12 78 -224 100 -270 15
-33 43 -99 46 -110 10 -38 189 -438 212 -472 8 -13 12 -23 9 -23 -5 0 147
-304 211 -420 19 -36 53 -99 75 -140 90 -168 373 -632 389 -638 4 -2 8 -8 8
-12 0 -11 168 -259 274 -405 85 -118 197 -267 206 -275 3 -3 27 -34 55 -70 27
-36 103 -130 169 -210 114 -137 144 -172 191 -224 11 -12 50 -56 87 -97 257
-287 646 -666 953 -930 96 -82 432 -353 489 -394 24 -18 123 -91 151 -113 134
-102 646 -441 780 -516 17 -9 44 -25 60 -36 17 -10 53 -31 80 -46 28 -14 62
-35 77 -45 14 -11 28 -19 31 -19 3 0 34 -16 69 -36 143 -82 553 -291 580 -296
10 -2 12 726 13 3340 l0 3343 -62 -2 c-35 -1 -64 -3 -65 -4z"/>
<path d="M15230 4506 c0 -1840 2 -3346 5 -3346 6 0 339 166 425 212 197 105
245 133 248 140 2 4 8 8 13 8 13 0 173 92 177 102 2 4 8 8 13 8 38 0 874 557
887 591 2 5 8 9 13 9 7 0 145 102 196 145 7 5 18 15 25 20 64 51 259 209 280
227 14 13 37 32 49 42 287 240 789 733 1009 991 24 28 46 52 50 55 5 4 263
311 293 350 145 184 201 258 285 375 56 77 106 145 111 151 9 10 202 299 228
340 301 480 494 829 688 1249 128 274 325 755 325 789 0 7 -105 37 -232 69
-255 62 -550 133 -589 141 -13 2 -58 12 -99 21 -41 9 -86 19 -100 21 -14 3
-41 9 -60 14 -19 5 -46 11 -60 14 -14 2 -45 9 -70 15 -25 5 -56 12 -70 14 -14
3 -61 13 -105 22 -44 9 -91 19 -105 21 -14 3 -101 20 -195 39 -93 19 -186 37
-205 40 -19 3 -96 17 -170 31 -154 29 -230 42 -280 50 -19 2 -46 7 -60 10 -36
7 -67 12 -140 24 -36 5 -76 12 -90 15 -13 2 -42 7 -65 10 -22 3 -94 15 -160
25 -66 11 -138 22 -160 25 -22 3 -116 17 -210 30 -175 26 -218 32 -270 40 -16
2 -52 7 -80 10 -27 3 -65 8 -82 11 -78 10 -101 13 -158 20 -33 3 -68 8 -77 9
-9 2 -48 7 -85 10 -37 4 -75 8 -83 10 -8 2 -42 7 -75 10 -33 3 -73 8 -90 10
-16 2 -57 7 -90 10 -33 4 -76 8 -95 11 -19 2 -82 9 -140 14 -58 6 -123 13
-145 15 -75 8 -140 14 -210 20 -38 3 -86 8 -105 10 -19 3 -66 7 -105 10 -38 2
-100 7 -137 11 l-68 6 0 -3346z"/>
</g>
</svg>
